<svg width="200" height="200" viewBox="0 0 200 200" fill="none" xmlns="http://www.w3.org/2000/svg">
<path d="M168.416 83.0675V71.7722H157.078H145.74V60.4767H134.402H123.064H111.726V71.7722V83.0675H100.388H89.0499V71.7722V60.4767H77.7118H66.3524H55.0143V71.7722H43.6762H32.3594V83.0675V94.363H21V105.637V116.932V128.228V139.523V150.818H32.3594V162.114V173.409H43.6762V184.705H55.0143H66.3524V196H77.7118H89.0499H100.388H111.726H123.064H134.402V184.705H145.74H157.078V173.409H168.416V162.114V150.818H179.755V139.523V128.228V116.932V105.637V94.363H168.416V83.0675Z" fill="#00FF91"/>
<path d="M157.078 15.2953V4H145.74H134.402H123.064V15.2953H111.726V26.5907H111.832L111.726 26.6975V26.5907H100.388H89.0494V37.8861V49.1601V60.4768H100.388H111.726V49.1601H123.064H134.402H145.74H157.078V37.8861H168.416V26.5907V15.2953H157.078Z" fill="#00985B"/>
</svg>
